<?xml version="1.0" encoding="UTF-8" standalone="no"?>
<!DOCTYPE svg PUBLIC "-//W3C//DTD SVG 1.1//EN"
 "http://www.w3.org/Graphics/SVG/1.1/DTD/svg11.dtd">
<!-- Generated by graphviz version 2.42.4 (0)
 -->
<!-- Title: G Pages: 1 -->
<svg width="1413pt" height="270pt"
 viewBox="0.00 0.00 1413.40 270.40" xmlns="http://www.w3.org/2000/svg" xmlns:xlink="http://www.w3.org/1999/xlink">
<g id="graph0" class="graph" transform="scale(1 1) rotate(0) translate(25.2 245.2)">
<title>G</title>
<polygon fill="#101820" stroke="transparent" points="-25.2,25.2 -25.2,-245.2 1388.2,-245.2 1388.2,25.2 -25.2,25.2"/>
<text text-anchor="middle" x="681.5" y="-200" font-family="DejaVu Sans" font-size="20.00" fill="#ffffff">One MPTCP connection, two intended subflows</text>
<!-- appa -->
<g id="node1" class="node">
<title>appa</title>
<path fill="#37474f" stroke="#4dd0e1" stroke-width="1.7" d="M143,-153C143,-153 12,-153 12,-153 6,-153 0,-147 0,-141 0,-141 0,-121 0,-121 0,-115 6,-109 12,-109 12,-109 143,-109 143,-109 149,-109 155,-115 155,-121 155,-121 155,-141 155,-141 155,-147 149,-153 143,-153"/>
<text text-anchor="middle" x="77.5" y="-134.8" font-family="DejaVu Sans" font-size="14.00" fill="#f5f7fa">Node A application</text>
<text text-anchor="middle" x="77.5" y="-119.8" font-family="DejaVu Sans" font-size="14.00" fill="#f5f7fa">one socket</text>
</g>
<!-- metaA -->
<g id="node2" class="node">
<title>metaA</title>
<path fill="#263238" stroke="#4dd0e1" stroke-width="1.7" d="M344,-149C344,-149 208,-149 208,-149 202,-149 196,-143 196,-137 196,-137 196,-125 196,-125 196,-119 202,-113 208,-113 208,-113 344,-113 344,-113 350,-113 356,-119 356,-125 356,-125 356,-137 356,-137 356,-143 350,-149 344,-149"/>
<text text-anchor="middle" x="276" y="-127.3" font-family="DejaVu Sans" font-size="14.00" fill="#f5f7fa">MPTCP meta&#45;socket</text>
</g>
<!-- appa&#45;&gt;metaA -->
<g id="edge1" class="edge">
<title>appa&#45;&gt;metaA</title>
<path fill="none" stroke="#90caf9" stroke-width="2" d="M155.03,-131C165.89,-131 177.12,-131 188.16,-131"/>
<polygon fill="#90caf9" stroke="#90caf9" stroke-width="2" points="188.26,-133.63 195.76,-131 188.26,-128.38 188.26,-133.63"/>
</g>
<!-- sf0a -->
<g id="node3" class="node">
<title>sf0a</title>
<path fill="#263238" stroke="#4dd0e1" stroke-width="1.7" d="M477,-190C477,-190 409,-190 409,-190 403,-190 397,-184 397,-178 397,-178 397,-158 397,-158 397,-152 403,-146 409,-146 409,-146 477,-146 477,-146 483,-146 489,-152 489,-158 489,-158 489,-178 489,-178 489,-184 483,-190 477,-190"/>
<text text-anchor="middle" x="443" y="-171.8" font-family="DejaVu Sans" font-size="14.00" fill="#f5f7fa">subflow 0</text>
<text text-anchor="middle" x="443" y="-156.8" font-family="DejaVu Sans" font-size="14.00" fill="#f5f7fa">10.44.0.1</text>
</g>
<!-- metaA&#45;&gt;sf0a -->
<g id="edge2" class="edge">
<title>metaA&#45;&gt;sf0a</title>
<path fill="none" stroke="#90caf9" stroke-width="2" d="M356.12,-148.74C367.3,-151.25 378.56,-153.77 389.09,-156.13"/>
<polygon fill="#90caf9" stroke="#90caf9" stroke-width="2" points="388.71,-158.74 396.61,-157.82 389.86,-153.62 388.71,-158.74"/>
</g>
<!-- sf1a -->
<g id="node4" class="node">
<title>sf1a</title>
<path fill="#263238" stroke="#4dd0e1" stroke-width="1.7" d="M477,-117C477,-117 409,-117 409,-117 403,-117 397,-111 397,-105 397,-105 397,-85 397,-85 397,-79 403,-73 409,-73 409,-73 477,-73 477,-73 483,-73 489,-79 489,-85 489,-85 489,-105 489,-105 489,-111 483,-117 477,-117"/>
<text text-anchor="middle" x="443" y="-98.8" font-family="DejaVu Sans" font-size="14.00" fill="#f5f7fa">subflow 1</text>
<text text-anchor="middle" x="443" y="-83.8" font-family="DejaVu Sans" font-size="14.00" fill="#f5f7fa">10.44.1.1</text>
</g>
<!-- metaA&#45;&gt;sf1a -->
<g id="edge3" class="edge">
<title>metaA&#45;&gt;sf1a</title>
<path fill="none" stroke="#90caf9" stroke-width="2" d="M356.12,-113.74C367.3,-111.3 378.56,-108.84 389.09,-106.54"/>
<polygon fill="#90caf9" stroke="#90caf9" stroke-width="2" points="389.84,-109.07 396.61,-104.9 388.72,-103.94 389.84,-109.07"/>
</g>
<!-- sf0b -->
<g id="node5" class="node">
<title>sf0b</title>
<path fill="#263238" stroke="#4dd0e1" stroke-width="1.7" d="M858,-190C858,-190 764,-190 764,-190 758,-190 752,-184 752,-178 752,-178 752,-158 752,-158 752,-152 758,-146 764,-146 764,-146 858,-146 858,-146 864,-146 870,-152 870,-158 870,-158 870,-178 870,-178 870,-184 864,-190 858,-190"/>
<text text-anchor="middle" x="811" y="-171.8" font-family="DejaVu Sans" font-size="14.00" fill="#f5f7fa">10.44.0.2</text>
<text text-anchor="middle" x="811" y="-156.8" font-family="DejaVu Sans" font-size="14.00" fill="#f5f7fa">initial listener</text>
</g>
<!-- sf0a&#45;&gt;sf0b -->
<g id="edge4" class="edge">
<title>sf0a&#45;&gt;sf0b</title>
<path fill="none" stroke="#26c6da" stroke-width="4" d="M496.85,-168C562.23,-168 673.53,-168 744.32,-168"/>
<polygon fill="#26c6da" stroke="#26c6da" stroke-width="4" points="496.75,-165.38 489.25,-168 496.75,-170.63 496.75,-165.38"/>
<polygon fill="#26c6da" stroke="#26c6da" stroke-width="4" points="744.4,-170.63 751.9,-168 744.4,-165.38 744.4,-170.63"/>
<text text-anchor="middle" x="586" y="-171.8" font-family="DejaVu Sans" font-size="14.00" fill="#cfd8dc">MP_CAPABLE / cable 0</text>
</g>
<!-- sf1b -->
<g id="node6" class="node">
<title>sf1b</title>
<path fill="#263238" stroke="#4dd0e1" stroke-width="1.7" d="M870,-117C870,-117 752,-117 752,-117 746,-117 740,-111 740,-105 740,-105 740,-85 740,-85 740,-79 746,-73 752,-73 752,-73 870,-73 870,-73 876,-73 882,-79 882,-85 882,-85 882,-105 882,-105 882,-111 876,-117 870,-117"/>
<text text-anchor="middle" x="811" y="-98.8" font-family="DejaVu Sans" font-size="14.00" fill="#f5f7fa">10.44.1.2</text>
<text text-anchor="middle" x="811" y="-83.8" font-family="DejaVu Sans" font-size="14.00" fill="#f5f7fa">signaled address</text>
</g>
<!-- sf1a&#45;&gt;sf1b -->
<g id="edge5" class="edge">
<title>sf1a&#45;&gt;sf1b</title>
<path fill="none" stroke="#7e57c2" stroke-width="4" d="M496.83,-95C558.57,-95 661.31,-95 732.19,-95"/>
<polygon fill="#7e57c2" stroke="#7e57c2" stroke-width="4" points="496.75,-92.38 489.25,-95 496.75,-97.63 496.75,-92.38"/>
<polygon fill="#7e57c2" stroke="#7e57c2" stroke-width="4" points="732.3,-97.63 739.8,-95 732.3,-92.38 732.3,-97.63"/>
<text text-anchor="middle" x="586" y="-98.8" font-family="DejaVu Sans" font-size="14.00" fill="#cfd8dc">MP_JOIN / cable 1</text>
</g>
<!-- note -->
<g id="node9" class="node">
<title>note</title>
<path fill="#4e342e" stroke="#ffb74d" stroke-width="1.7" d="M927,-44C927,-44 695,-44 695,-44 689,-44 683,-38 683,-32 683,-32 683,-12 683,-12 683,-6 689,0 695,0 695,0 927,0 927,0 933,0 939,-6 939,-12 939,-12 939,-32 939,-32 939,-38 933,-44 927,-44"/>
<text text-anchor="middle" x="811" y="-25.8" font-family="DejaVu Sans" font-size="14.00" fill="#f5f7fa">Server: 10.44.1.2 signal</text>
<text text-anchor="middle" x="811" y="-10.8" font-family="DejaVu Sans" font-size="14.00" fill="#f5f7fa">Client: 10.44.1.1 subflow laminar</text>
</g>
<!-- sf1a&#45;&gt;note -->
<g id="edge9" class="edge">
<title>sf1a&#45;&gt;note</title>
<path fill="none" stroke="#90caf9" stroke-width="2" stroke-dasharray="1,5" d="M489.25,-85.98C541.36,-75.58 628.86,-58.13 699.32,-44.08"/>
</g>
<!-- metaB -->
<g id="node7" class="node">
<title>metaB</title>
<path fill="#263238" stroke="#4dd0e1" stroke-width="1.7" d="M1155,-149C1155,-149 992,-149 992,-149 986,-149 980,-143 980,-137 980,-137 980,-125 980,-125 980,-119 986,-113 992,-113 992,-113 1155,-113 1155,-113 1161,-113 1167,-119 1167,-125 1167,-125 1167,-137 1167,-137 1167,-143 1161,-149 1155,-149"/>
<text text-anchor="middle" x="1073.5" y="-127.3" font-family="DejaVu Sans" font-size="14.00" fill="#f5f7fa">MPTCP accepted socket</text>
</g>
<!-- sf0b&#45;&gt;metaB -->
<g id="edge6" class="edge">
<title>sf0b&#45;&gt;metaB</title>
<path fill="none" stroke="#90caf9" stroke-width="2" d="M870.14,-159.74C900.11,-155.49 937.52,-150.17 972,-145.27"/>
<polygon fill="#90caf9" stroke="#90caf9" stroke-width="2" points="972.71,-147.83 979.76,-144.17 971.97,-142.63 972.71,-147.83"/>
</g>
<!-- sf1b&#45;&gt;metaB -->
<g id="edge7" class="edge">
<title>sf1b&#45;&gt;metaB</title>
<path fill="none" stroke="#90caf9" stroke-width="2" d="M882.15,-104.69C909.8,-108.52 942.07,-112.98 972.1,-117.13"/>
<polygon fill="#90caf9" stroke="#90caf9" stroke-width="2" points="971.9,-119.75 979.69,-118.17 972.62,-114.55 971.9,-119.75"/>
</g>
<!-- appb -->
<g id="node8" class="node">
<title>appb</title>
<path fill="#37474f" stroke="#4dd0e1" stroke-width="1.7" d="M1351,-153C1351,-153 1220,-153 1220,-153 1214,-153 1208,-147 1208,-141 1208,-141 1208,-121 1208,-121 1208,-115 1214,-109 1220,-109 1220,-109 1351,-109 1351,-109 1357,-109 1363,-115 1363,-121 1363,-121 1363,-141 1363,-141 1363,-147 1357,-153 1351,-153"/>
<text text-anchor="middle" x="1285.5" y="-134.8" font-family="DejaVu Sans" font-size="14.00" fill="#f5f7fa">Node B application</text>
<text text-anchor="middle" x="1285.5" y="-119.8" font-family="DejaVu Sans" font-size="14.00" fill="#f5f7fa">one socket</text>
</g>
<!-- metaB&#45;&gt;appb -->
<g id="edge8" class="edge">
<title>metaB&#45;&gt;appb</title>
<path fill="none" stroke="#90caf9" stroke-width="2" d="M1167.22,-131C1178.29,-131 1189.54,-131 1200.48,-131"/>
<polygon fill="#90caf9" stroke="#90caf9" stroke-width="2" points="1200.5,-133.63 1208,-131 1200.5,-128.38 1200.5,-133.63"/>
</g>
</g>
</svg>
