<?xml version="1.0" encoding="UTF-8" standalone="no"?>
<!DOCTYPE svg PUBLIC "-//W3C//DTD SVG 1.1//EN"
 "http://www.w3.org/Graphics/SVG/1.1/DTD/svg11.dtd">
<!-- Generated by graphviz version 2.42.4 (0)
 -->
<!-- Title: G Pages: 1 -->
<svg width="859pt" height="98pt"
 viewBox="0.00 0.00 858.81 98.00" xmlns="http://www.w3.org/2000/svg" xmlns:xlink="http://www.w3.org/1999/xlink">
<g id="graph0" class="graph" transform="scale(1 1) rotate(0) translate(18 80)">
<title>G</title>
<!-- in -->
<g id="node1" class="node">
<title>in</title>
<ellipse fill="#0f172a" stroke="#475569" cx="83.44" cy="-31" rx="83.38" ry="18.27"/>
<text text-anchor="middle" x="83.44" y="-28.2" font-family="Inter,Arial" font-size="11.00" fill="#e5e7eb">prompt / token IDs</text>
</g>
<!-- a -->
<g id="node2" class="node">
<title>a</title>
<path fill="#111827" stroke="#475569" d="M356.88,-62C356.88,-62 227.88,-62 227.88,-62 221.88,-62 215.88,-56 215.88,-50 215.88,-50 215.88,-12 215.88,-12 215.88,-6 221.88,0 227.88,0 227.88,0 356.88,0 356.88,0 362.88,0 368.88,-6 368.88,-12 368.88,-12 368.88,-50 368.88,-50 368.88,-56 362.88,-62 356.88,-62"/>
<text text-anchor="middle" x="292.38" y="-46.2" font-family="Inter,Arial" font-size="11.00" fill="#e5e7eb">Rank 0</text>
<text text-anchor="middle" x="292.38" y="-34.2" font-family="Inter,Arial" font-size="11.00" fill="#e5e7eb">Tokenizer + embeddings</text>
<text text-anchor="middle" x="292.38" y="-22.2" font-family="Inter,Arial" font-size="11.00" fill="#e5e7eb">Layers [0,k)</text>
<text text-anchor="middle" x="292.38" y="-10.2" font-family="Inter,Arial" font-size="11.00" fill="#e5e7eb">KV for [0,k)</text>
</g>
<!-- in&#45;&gt;a -->
<g id="edge1" class="edge">
<title>in&#45;&gt;a</title>
<path fill="none" stroke="#22d3ee" stroke-width="1.6" d="M167.12,-31C180.45,-31 194.26,-31 207.62,-31"/>
<polygon fill="#22d3ee" stroke="#22d3ee" stroke-width="1.6" points="207.87,-33.8 215.87,-31 207.87,-28.2 207.87,-33.8"/>
</g>
<!-- b -->
<g id="node3" class="node">
<title>b</title>
<path fill="#111827" stroke="#475569" d="M628.88,-62C628.88,-62 516.88,-62 516.88,-62 510.88,-62 504.88,-56 504.88,-50 504.88,-50 504.88,-12 504.88,-12 504.88,-6 510.88,0 516.88,0 516.88,0 628.88,0 628.88,0 634.88,0 640.88,-6 640.88,-12 640.88,-12 640.88,-50 640.88,-50 640.88,-56 634.88,-62 628.88,-62"/>
<text text-anchor="middle" x="572.88" y="-46.2" font-family="Inter,Arial" font-size="11.00" fill="#e5e7eb">Rank 1</text>
<text text-anchor="middle" x="572.88" y="-34.2" font-family="Inter,Arial" font-size="11.00" fill="#e5e7eb">Layers [k,L)</text>
<text text-anchor="middle" x="572.88" y="-22.2" font-family="Inter,Arial" font-size="11.00" fill="#e5e7eb">Final norm + LM head</text>
<text text-anchor="middle" x="572.88" y="-10.2" font-family="Inter,Arial" font-size="11.00" fill="#e5e7eb">Sampler + KV for [k,L)</text>
</g>
<!-- a&#45;&gt;b -->
<g id="edge2" class="edge">
<title>a&#45;&gt;b</title>
<path fill="none" stroke="#22d3ee" stroke-width="2.2" d="M369.11,-31C408.66,-31 456.91,-31 496.42,-31"/>
<polygon fill="#22d3ee" stroke="#22d3ee" stroke-width="2.2" points="496.71,-33.8 504.71,-31 496.71,-28.2 496.71,-33.8"/>
<text text-anchor="middle" x="436.88" y="-53.8" font-family="Inter,Arial" font-size="9.00" fill="#cbd5e1">one hidden&#45;state cut</text>
<text text-anchor="middle" x="436.88" y="-43.8" font-family="Inter,Arial" font-size="9.00" fill="#cbd5e1">prefill N·h·bₐ</text>
<text text-anchor="middle" x="436.88" y="-33.8" font-family="Inter,Arial" font-size="9.00" fill="#cbd5e1">decode Q·h·bₐ</text>
</g>
<!-- b&#45;&gt;a -->
<g id="edge3" class="edge">
<title>b&#45;&gt;a</title>
<path fill="none" stroke="#a78bfa" stroke-width="1.6" d="M504.56,-14.51C496.62,-13.07 488.6,-11.84 480.88,-11 441.99,-6.78 431.8,-7.13 392.88,-11 387.64,-11.52 382.26,-12.19 376.86,-12.98"/>
<polygon fill="#a78bfa" stroke="#a78bfa" stroke-width="1.6" points="376.41,-10.21 368.93,-14.19 377.26,-15.75 376.41,-10.21"/>
<text text-anchor="middle" x="436.88" y="-13.8" font-family="Inter,Arial" font-size="9.00" fill="#cbd5e1">Q token IDs</text>
</g>
<!-- out -->
<g id="node4" class="node">
<title>out</title>
<ellipse fill="#0f172a" stroke="#475569" cx="756.35" cy="-31" rx="66.44" ry="18.27"/>
<text text-anchor="middle" x="756.35" y="-28.2" font-family="Inter,Arial" font-size="11.00" fill="#e5e7eb">emitted token</text>
</g>
<!-- b&#45;&gt;out -->
<g id="edge4" class="edge">
<title>b&#45;&gt;out</title>
<path fill="none" stroke="#22d3ee" stroke-width="1.6" d="M640.93,-31C654.14,-31 668.07,-31 681.49,-31"/>
<polygon fill="#22d3ee" stroke="#22d3ee" stroke-width="1.6" points="681.77,-33.8 689.77,-31 681.77,-28.2 681.77,-33.8"/>
</g>
</g>
</svg>
