<?xml version="1.0" encoding="UTF-8" standalone="no"?>
<!DOCTYPE svg PUBLIC "-//W3C//DTD SVG 1.1//EN"
 "http://www.w3.org/Graphics/SVG/1.1/DTD/svg11.dtd">
<!-- Generated by graphviz version 2.42.4 (0)
 -->
<!-- Title: G Pages: 1 -->
<svg width="1098pt" height="280pt"
 viewBox="0.00 0.00 1098.00 280.00" xmlns="http://www.w3.org/2000/svg" xmlns:xlink="http://www.w3.org/1999/xlink">
<g id="graph0" class="graph" transform="scale(1 1) rotate(0) translate(18 262)">
<title>G</title>
<!-- a -->
<g id="node1" class="node">
<title>a</title>
<path fill="#eef3fa" stroke="#506784" d="M46,-78C46,-78 12,-78 12,-78 6,-78 0,-72 0,-66 0,-66 0,-54 0,-54 0,-48 6,-42 12,-42 12,-42 46,-42 46,-42 52,-42 58,-48 58,-54 58,-54 58,-66 58,-66 58,-72 52,-78 46,-78"/>
<text text-anchor="middle" x="29" y="-57.5" font-family="Helvetica,sans-Serif" font-size="10.00">ABSENT</text>
</g>
<!-- b -->
<g id="node2" class="node">
<title>b</title>
<path fill="#fde8e8" stroke="#a40e26" d="M214,-78C214,-78 133,-78 133,-78 127,-78 121,-72 121,-66 121,-66 121,-54 121,-54 121,-48 127,-42 133,-42 133,-42 214,-42 214,-42 220,-42 226,-48 226,-54 226,-54 226,-66 226,-66 226,-72 220,-78 214,-78"/>
<text text-anchor="middle" x="173.5" y="-63" font-family="Helvetica,sans-Serif" font-size="10.00">FINAL PATH OPEN</text>
<text text-anchor="middle" x="173.5" y="-52" font-family="Helvetica,sans-Serif" font-size="10.00">O_TRUNC</text>
</g>
<!-- a&#45;&gt;b -->
<g id="edge1" class="edge">
<title>a&#45;&gt;b</title>
<path fill="none" stroke="#506784" d="M58.15,-60C73.21,-60 92.38,-60 110.7,-60"/>
<polygon fill="#506784" stroke="#506784" points="110.76,-63.5 120.76,-60 110.76,-56.5 110.76,-63.5"/>
<text text-anchor="middle" x="89.5" y="-62.8" font-family="Helvetica,sans-Serif" font-size="9.00">store</text>
</g>
<!-- c -->
<g id="node3" class="node">
<title>c</title>
<path fill="#fde8e8" stroke="#a40e26" d="M367,-119C367,-119 279,-119 279,-119 273,-119 267,-113 267,-107 267,-107 267,-95 267,-95 267,-89 273,-83 279,-83 279,-83 367,-83 367,-83 373,-83 379,-89 379,-95 379,-95 379,-107 379,-107 379,-113 373,-119 367,-119"/>
<text text-anchor="middle" x="323" y="-104" font-family="Helvetica,sans-Serif" font-size="10.00">HEADER / PAYLOAD</text>
<text text-anchor="middle" x="323" y="-93" font-family="Helvetica,sans-Serif" font-size="10.00">WRITING</text>
</g>
<!-- b&#45;&gt;c -->
<g id="edge2" class="edge">
<title>b&#45;&gt;c</title>
<path fill="none" stroke="#506784" d="M226.09,-74.34C236.1,-77.12 246.71,-80.07 257.08,-82.96"/>
<polygon fill="#506784" stroke="#506784" points="256.36,-86.39 266.93,-85.69 258.23,-79.64 256.36,-86.39"/>
</g>
<!-- p -->
<g id="node8" class="node">
<title>p</title>
<path fill="#fff0d6" stroke="#8a5a00" d="M556,-59C556,-59 488,-59 488,-59 482,-59 476,-53 476,-47 476,-47 476,-35 476,-35 476,-29 482,-23 488,-23 488,-23 556,-23 556,-23 562,-23 568,-29 568,-35 568,-35 568,-47 568,-47 568,-53 562,-59 556,-59"/>
<text text-anchor="middle" x="522" y="-44" font-family="Helvetica,sans-Serif" font-size="10.00">CRASH&#45;VISIBLE</text>
<text text-anchor="middle" x="522" y="-33" font-family="Helvetica,sans-Serif" font-size="10.00">PARTIAL</text>
</g>
<!-- b&#45;&gt;p -->
<g id="edge10" class="edge">
<title>b&#45;&gt;p</title>
<path fill="none" stroke="#a40e26" stroke-dasharray="5,2" d="M226,-57.18C290.24,-53.65 399.65,-47.65 465.64,-44.04"/>
<polygon fill="#a40e26" stroke="#a40e26" points="466.05,-47.52 475.85,-43.48 465.67,-40.53 466.05,-47.52"/>
<text text-anchor="middle" x="323" y="-57.8" font-family="Helvetica,sans-Serif" font-size="9.00">crash</text>
</g>
<!-- d -->
<g id="node4" class="node">
<title>d</title>
<path fill="#eef3fa" stroke="#506784" d="M542.5,-179C542.5,-179 501.5,-179 501.5,-179 495.5,-179 489.5,-173 489.5,-167 489.5,-167 489.5,-155 489.5,-155 489.5,-149 495.5,-143 501.5,-143 501.5,-143 542.5,-143 542.5,-143 548.5,-143 554.5,-149 554.5,-155 554.5,-155 554.5,-167 554.5,-167 554.5,-173 548.5,-179 542.5,-179"/>
<text text-anchor="middle" x="522" y="-158.5" font-family="Helvetica,sans-Serif" font-size="10.00">HOT RAM</text>
</g>
<!-- c&#45;&gt;d -->
<g id="edge3" class="edge">
<title>c&#45;&gt;d</title>
<path fill="none" stroke="#506784" d="M379.14,-117.79C410.91,-127.47 450.19,-139.43 479.36,-148.32"/>
<polygon fill="#506784" stroke="#506784" points="478.64,-151.76 489.23,-151.32 480.68,-145.06 478.64,-151.76"/>
<text text-anchor="middle" x="427.5" y="-141.8" font-family="Helvetica,sans-Serif" font-size="9.00">close + map</text>
</g>
<!-- c&#45;&gt;p -->
<g id="edge11" class="edge">
<title>c&#45;&gt;p</title>
<path fill="none" stroke="#a40e26" stroke-dasharray="5,2" d="M379,-85.09C402.73,-78.13 430.77,-69.8 456,-62 459.33,-60.97 462.75,-59.9 466.2,-58.81"/>
<polygon fill="#a40e26" stroke="#a40e26" points="467.47,-62.08 475.94,-55.72 465.35,-55.41 467.47,-62.08"/>
<text text-anchor="middle" x="427.5" y="-81.8" font-family="Helvetica,sans-Serif" font-size="9.00">crash</text>
</g>
<!-- e -->
<g id="node5" class="node">
<title>e</title>
<path fill="#eef3fa" stroke="#506784" d="M749.5,-244C749.5,-244 697.5,-244 697.5,-244 691.5,-244 685.5,-238 685.5,-232 685.5,-232 685.5,-220 685.5,-220 685.5,-214 691.5,-208 697.5,-208 697.5,-208 749.5,-208 749.5,-208 755.5,-208 761.5,-214 761.5,-220 761.5,-220 761.5,-232 761.5,-232 761.5,-238 755.5,-244 749.5,-244"/>
<text text-anchor="middle" x="723.5" y="-223.5" font-family="Helvetica,sans-Serif" font-size="10.00">WARM RAM</text>
</g>
<!-- d&#45;&gt;e -->
<g id="edge4" class="edge">
<title>d&#45;&gt;e</title>
<path fill="none" stroke="#506784" d="M554.5,-174.33C565.07,-178.6 576.97,-183.2 588,-187 616.72,-196.88 649.44,-206.4 675.41,-213.57"/>
<polygon fill="#506784" stroke="#506784" points="674.8,-217.03 685.37,-216.29 676.65,-210.28 674.8,-217.03"/>
<text text-anchor="middle" x="623" y="-210.8" font-family="Helvetica,sans-Serif" font-size="9.00">demote</text>
</g>
<!-- g -->
<g id="node7" class="node">
<title>g</title>
<path fill="#eef3fa" stroke="#506784" d="M1050,-194C1050,-194 1013,-194 1013,-194 1007,-194 1001,-188 1001,-182 1001,-182 1001,-170 1001,-170 1001,-164 1007,-158 1013,-158 1013,-158 1050,-158 1050,-158 1056,-158 1062,-164 1062,-170 1062,-170 1062,-182 1062,-182 1062,-188 1056,-194 1050,-194"/>
<text text-anchor="middle" x="1031.5" y="-173.5" font-family="Helvetica,sans-Serif" font-size="10.00">EVICTED</text>
</g>
<!-- d&#45;&gt;g -->
<g id="edge8" class="edge">
<title>d&#45;&gt;g</title>
<path fill="none" stroke="#506784" d="M554.7,-155.44C621.25,-144.65 780.26,-123.47 912,-142 938.96,-145.79 968.37,-154.21 991.16,-161.72"/>
<polygon fill="#506784" stroke="#506784" points="990.21,-165.09 1000.81,-164.97 992.45,-158.46 990.21,-165.09"/>
</g>
<!-- f -->
<g id="node6" class="node">
<title>f</title>
<path fill="#eef3fa" stroke="#506784" d="M900,-194C900,-194 856,-194 856,-194 850,-194 844,-188 844,-182 844,-182 844,-170 844,-170 844,-164 850,-158 856,-158 856,-158 900,-158 900,-158 906,-158 912,-164 912,-170 912,-170 912,-182 912,-182 912,-188 906,-194 900,-194"/>
<text text-anchor="middle" x="878" y="-173.5" font-family="Helvetica,sans-Serif" font-size="10.00">COLD SSD</text>
</g>
<!-- e&#45;&gt;f -->
<g id="edge5" class="edge">
<title>e&#45;&gt;f</title>
<path fill="none" stroke="#506784" d="M761.81,-213.77C783.7,-206.59 811.44,-197.49 834.22,-190.03"/>
<polygon fill="#506784" stroke="#506784" points="835.56,-193.27 843.97,-186.83 833.37,-186.62 835.56,-193.27"/>
<text text-anchor="middle" x="806.5" y="-205.8" font-family="Helvetica,sans-Serif" font-size="9.00">demote</text>
</g>
<!-- e&#45;&gt;g -->
<g id="edge9" class="edge">
<title>e&#45;&gt;g</title>
<path fill="none" stroke="#506784" d="M761.87,-224.78C780.55,-224 803.5,-222.79 824,-221 894.53,-214.83 913.12,-214.13 981,-194 984.35,-193.01 987.79,-191.91 991.24,-190.76"/>
<polygon fill="#506784" stroke="#506784" points="992.55,-194.02 1000.85,-187.44 990.26,-187.4 992.55,-194.02"/>
</g>
<!-- f&#45;&gt;d -->
<g id="edge6" class="edge">
<title>f&#45;&gt;d</title>
<path fill="none" stroke="#506784" d="M843.93,-174.6C779.31,-171.86 636.39,-165.8 565.12,-162.78"/>
<polygon fill="#506784" stroke="#506784" points="564.87,-159.27 554.73,-162.34 564.57,-166.26 564.87,-159.27"/>
<text text-anchor="middle" x="723.5" y="-173.8" font-family="Helvetica,sans-Serif" font-size="9.00">load/promote</text>
</g>
<!-- f&#45;&gt;g -->
<g id="edge7" class="edge">
<title>f&#45;&gt;g</title>
<path fill="none" stroke="#506784" d="M912.25,-176C935.42,-176 966.43,-176 990.88,-176"/>
<polygon fill="#506784" stroke="#506784" points="990.92,-179.5 1000.92,-176 990.92,-172.5 990.92,-179.5"/>
<text text-anchor="middle" x="956.5" y="-178.8" font-family="Helvetica,sans-Serif" font-size="9.00">cold prune</text>
</g>
<!-- m -->
<g id="node9" class="node">
<title>m</title>
<path fill="#e8f5e9" stroke="#216e39" d="M757,-36C757,-36 690,-36 690,-36 684,-36 678,-30 678,-24 678,-24 678,-12 678,-12 678,-6 684,0 690,0 690,0 757,0 757,0 763,0 769,-6 769,-12 769,-12 769,-24 769,-24 769,-30 763,-36 757,-36"/>
<text text-anchor="middle" x="723.5" y="-15.5" font-family="Helvetica,sans-Serif" font-size="10.00">MISS ON READ</text>
</g>
<!-- p&#45;&gt;m -->
<g id="edge12" class="edge">
<title>p&#45;&gt;m</title>
<path fill="none" stroke="#506784" d="M568.27,-35.78C597.71,-32.39 636.27,-27.94 667.48,-24.34"/>
<polygon fill="#506784" stroke="#506784" points="668.22,-27.78 677.75,-23.16 667.42,-20.83 668.22,-27.78"/>
<text text-anchor="middle" x="623" y="-35.8" font-family="Helvetica,sans-Serif" font-size="9.00">short read later</text>
</g>
</g>
</svg>
